HIERARCHY
ROOT Hips
{
	OFFSET 0.000000 100.481300 0.000000
	CHANNELS 6 Xposition Yposition Zposition Xrotation Yrotation Zrotation 
	JOINT Spine
	{
		OFFSET -0.279200 12.230698 -2.892100
		CHANNELS 3 Xrotation Yrotation Zrotation
		JOINT Spine1
		{
			OFFSET -0.232667 10.192268 -1.242267
			CHANNELS 3 Xrotation Yrotation Zrotation
			JOINT Spine1_split
			{
				OFFSET -0.232667 10.192268 -1.242267
				CHANNELS 3 Xrotation Yrotation Zrotation
				JOINT Spine2
				{
					OFFSET -0.232667 10.192268 -1.242267
					CHANNELS 3 Xrotation Yrotation Zrotation
					JOINT Neck
					{
						OFFSET -0.418800 17.814194 8.416900
						CHANNELS 3 Xrotation Yrotation Zrotation
						JOINT Head
						{
							OFFSET 0.000000 7.031097 3.806800
							CHANNELS 3 Xrotation Yrotation Zrotation
							JOINT HeadTop_End
							{
								OFFSET 0.000000 24.646606 12.978600
								CHANNELS 3 Xrotation Yrotation Zrotation
								End Site
								{
									OFFSET 0.000000 0.000000 0.000000
								}
							}
						}
					}
					JOINT LeftShoulder
					{
						OFFSET 8.476499 7.247704 -3.868750
						CHANNELS 3 Xrotation Yrotation Zrotation
						JOINT LeftShoulder_split
						{
							OFFSET 8.476499 7.247704 -3.868750
							CHANNELS 3 Xrotation Yrotation Zrotation
							JOINT LeftArm
							{
								OFFSET 9.308998 -2.777710 0.208600
								CHANNELS 3 Xrotation Yrotation Zrotation
								JOINT LeftForeArm
								{
									OFFSET 29.972298 0.000000 0.000000
									CHANNELS 3 Xrotation Yrotation Zrotation
									JOINT LeftHand
									{
										OFFSET 26.026505 0.000000 0.000000
										CHANNELS 3 Xrotation Yrotation Zrotation
										JOINT LeftHandThumb1
										{
											OFFSET 12.240501 -7.147949 9.207150
											CHANNELS 3 Xrotation Yrotation Zrotation
											JOINT LeftHandThumb2
											{
												OFFSET 4.138618 -2.389435 2.389433
												CHANNELS 3 Xrotation Yrotation Zrotation
												JOINT LeftHandThumb3
												{
													OFFSET 2.726913 -1.574387 1.574386
													CHANNELS 3 Xrotation Yrotation Zrotation
													JOINT LeftHandThumb4
													{
														OFFSET 3.941010 -2.275345 2.275342
														CHANNELS 3 Xrotation Yrotation Zrotation
														End Site
														{
															OFFSET 0.000000 0.000000 0.000000
														}
													}
												}
											}
										}
										JOINT LeftHandIndex1
										{
											OFFSET 24.424698 -1.985611 5.953459
											CHANNELS 3 Xrotation Yrotation Zrotation
											JOINT LeftHandIndex2
											{
												OFFSET 6.426697 0.000000 0.000000
												CHANNELS 3 Xrotation Yrotation Zrotation
												JOINT LeftHandIndex3
												{
													OFFSET 5.337898 0.000000 0.000000
													CHANNELS 3 Xrotation Yrotation Zrotation
													JOINT LeftHandIndex4
													{
														OFFSET 4.409401 0.000000 0.000000
														CHANNELS 3 Xrotation Yrotation Zrotation
														End Site
														{
															OFFSET 0.000000 0.000000 0.000000
														}
													}
												}
											}
										}
										JOINT LeftHandMiddle1
										{
											OFFSET 23.810104 0.000000 0.000000
											CHANNELS 3 Xrotation Yrotation Zrotation
											JOINT LeftHandMiddle2
											{
												OFFSET 7.176498 0.000000 0.000000
												CHANNELS 3 Xrotation Yrotation Zrotation
												JOINT LeftHandMiddle3
												{
													OFFSET 6.774902 0.000000 0.000000
													CHANNELS 3 Xrotation Yrotation Zrotation
													JOINT LeftHandMiddle4
													{
														OFFSET 5.403328 0.000000 0.000000
														CHANNELS 3 Xrotation Yrotation Zrotation
														End Site
														{
															OFFSET 0.000000 0.000000 0.000000
														}
													}
												}
											}
										}
										JOINT LeftHandRing1
										{
											OFFSET 22.908401 -0.839279 -6.020567
											CHANNELS 3 Xrotation Yrotation Zrotation
											JOINT LeftHandRing2
											{
												OFFSET 6.337502 0.000000 0.000000
												CHANNELS 3 Xrotation Yrotation Zrotation
												JOINT LeftHandRing3
												{
													OFFSET 5.779297 0.000000 0.000000
													CHANNELS 3 Xrotation Yrotation Zrotation
													JOINT LeftHandRing4
													{
														OFFSET 4.965698 0.000000 0.000000
														CHANNELS 3 Xrotation Yrotation Zrotation
														End Site
														{
															OFFSET 0.000000 0.000000 0.000000
														}
													}
												}
											}
										}
										JOINT LeftHandPinky1
										{
											OFFSET 20.037003 -1.530319 -10.950146
											CHANNELS 3 Xrotation Yrotation Zrotation
											JOINT LeftHandPinky2
											{
												OFFSET 5.254700 0.000000 0.000000
												CHANNELS 3 Xrotation Yrotation Zrotation
												JOINT LeftHandPinky3
												{
													OFFSET 4.810204 0.000000 0.000000
													CHANNELS 3 Xrotation Yrotation Zrotation
													JOINT LeftHandPinky4
													{
														OFFSET 3.647202 0.000000 0.000000
														CHANNELS 3 Xrotation Yrotation Zrotation
														End Site
														{
															OFFSET 0.000000 0.000000 0.000000
														}
													}
												}
											}
										}
									}
								}
							}
						}
					}
					JOINT RightShoulder
					{
						OFFSET -7.570500 7.247704 -3.868750
						CHANNELS 3 Xrotation Yrotation Zrotation
						JOINT RightShoulder_split
						{
							OFFSET -7.570500 7.247704 -3.868750
							CHANNELS 3 Xrotation Yrotation Zrotation
							JOINT RightArm
							{
								OFFSET -9.308998 -2.777710 0.208500
								CHANNELS 3 Xrotation Yrotation Zrotation
								JOINT RightForeArm
								{
									OFFSET -29.972300 0.000000 0.000000
									CHANNELS 3 Xrotation Yrotation Zrotation
									JOINT RightHand
									{
										OFFSET -26.026505 0.000000 0.000000
										CHANNELS 3 Xrotation Yrotation Zrotation
										JOINT RightHandThumb1
										{
											OFFSET -12.240601 -7.148026 9.207092
											CHANNELS 3 Xrotation Yrotation Zrotation
											JOINT RightHandThumb2
											{
												OFFSET -4.138618 -2.389435 2.389433
												CHANNELS 3 Xrotation Yrotation Zrotation
												JOINT RightHandThumb3
												{
													OFFSET -2.726974 -1.574417 1.574421
													CHANNELS 3 Xrotation Yrotation Zrotation
													JOINT RightHandThumb4
													{
														OFFSET -3.941010 -2.275345 2.275343
														CHANNELS 3 Xrotation Yrotation Zrotation
														End Site
														{
															OFFSET 0.000000 0.000000 0.000000
														}
													}
												}
											}
										}
										JOINT RightHandIndex1
										{
											OFFSET -24.424698 -1.985657 5.953444
											CHANNELS 3 Xrotation Yrotation Zrotation
											JOINT RightHandIndex2
											{
												OFFSET -6.426697 0.000000 0.000000
												CHANNELS 3 Xrotation Yrotation Zrotation
												JOINT RightHandIndex3
												{
													OFFSET -5.337898 0.000000 0.000000
													CHANNELS 3 Xrotation Yrotation Zrotation
													JOINT RightHandIndex4
													{
														OFFSET -4.409401 0.000000 0.000000
														CHANNELS 3 Xrotation Yrotation Zrotation
														End Site
														{
															OFFSET 0.000000 0.000000 0.000000
														}
													}
												}
											}
										}
										JOINT RightHandMiddle1
										{
											OFFSET -23.810097 0.000000 0.000000
											CHANNELS 3 Xrotation Yrotation Zrotation
											JOINT RightHandMiddle2
											{
												OFFSET -7.176498 0.000000 0.000000
												CHANNELS 3 Xrotation Yrotation Zrotation
												JOINT RightHandMiddle3
												{
													OFFSET -6.774902 0.000000 0.000000
													CHANNELS 3 Xrotation Yrotation Zrotation
													JOINT RightHandMiddle4
													{
														OFFSET -5.403328 0.000000 0.000000
														CHANNELS 3 Xrotation Yrotation Zrotation
														End Site
														{
															OFFSET 0.000000 0.000000 0.000000
														}
													}
												}
											}
										}
										JOINT RightHandRing1
										{
											OFFSET -22.908302 -0.839325 -6.020576
											CHANNELS 3 Xrotation Yrotation Zrotation
											JOINT RightHandRing2
											{
												OFFSET -6.337502 0.000000 0.000000
												CHANNELS 3 Xrotation Yrotation Zrotation
												JOINT RightHandRing3
												{
													OFFSET -5.779297 0.000000 0.000000
													CHANNELS 3 Xrotation Yrotation Zrotation
													JOINT RightHandRing4
													{
														OFFSET -4.965698 0.000000 0.000000
														CHANNELS 3 Xrotation Yrotation Zrotation
														End Site
														{
															OFFSET 0.000000 0.000000 0.000000
														}
													}
												}
											}
										}
										JOINT RightHandPinky1
										{
											OFFSET -20.037003 -1.530334 -10.950259
											CHANNELS 3 Xrotation Yrotation Zrotation
											JOINT RightHandPinky2
											{
												OFFSET -5.254700 0.000000 0.000000
												CHANNELS 3 Xrotation Yrotation Zrotation
												JOINT RightHandPinky3
												{
													OFFSET -4.810204 0.000000 0.000000
													CHANNELS 3 Xrotation Yrotation Zrotation
													JOINT RightHandPinky4
													{
														OFFSET -3.647202 0.000000 0.000000
														CHANNELS 3 Xrotation Yrotation Zrotation
														End Site
														{
															OFFSET 0.000000 0.000000 0.000000
														}
													}
												}
											}
										}
									}
								}
							}
						}
					}
				}
			}
		}
	}
	JOINT LeftUpLeg
	{
		OFFSET 15.427100 -6.655098 0.678600
		CHANNELS 3 Xrotation Yrotation Zrotation
		JOINT LeftLeg
		{
			OFFSET 4.081073 -39.591068 13.024000
			CHANNELS 3 Xrotation Yrotation Zrotation
			JOINT LeftFoot
			{
				OFFSET -4.081074 -37.707932 -15.979700
				CHANNELS 3 Xrotation Yrotation Zrotation
				JOINT LeftToeBase
				{
					OFFSET 5.346399 -15.068900 20.645000
					CHANNELS 3 Xrotation Yrotation Zrotation
					JOINT LeftToe_End
					{
						OFFSET 2.754700 0.931300 11.300900
						CHANNELS 3 Xrotation Yrotation Zrotation
						End Site
						{
							OFFSET 0.000000 0.000000 0.000000
						}
					}
				}
			}
		}
	}
	JOINT RightUpLeg
	{
		OFFSET -15.569500 -6.655098 0.678600
		CHANNELS 3 Xrotation Yrotation Zrotation
		JOINT RightLeg
		{
			OFFSET -4.081825 -39.591045 13.023800
			CHANNELS 3 Xrotation Yrotation Zrotation
			JOINT RightFoot
			{
				OFFSET 4.081824 -37.707954 -15.979600
				CHANNELS 3 Xrotation Yrotation Zrotation
				JOINT RightToeBase
				{
					OFFSET -5.346400 -15.068900 20.645000
					CHANNELS 3 Xrotation Yrotation Zrotation
					JOINT RightToe_End
					{
						OFFSET -2.754700 0.931300 11.300900
						CHANNELS 3 Xrotation Yrotation Zrotation
						End Site
						{
							OFFSET 0.000000 0.000000 0.000000
						}
					}
				}
			}
		}
	}
}
MOTION
Frames: 4
Frame Time: 0.016667
2.180657 82.366562 -1.187720 9.582369 -61.717767 10.032742 15.064220 -0.187990 -4.170218 5.872408 0.563921 -2.798208 0.000000 0.000000 0.000000 5.868720 0.648185 -2.860163 -3.632888 1.437156 3.747490 -20.005960 54.836768 2.407370 0.000001 -0.000000 0.000001 1.828104 -3.192685 -12.271575 0.000000 0.000000 0.000000 -39.387406 26.350491 -34.911091 0.429354 -46.808444 0.416183 -10.315066 -0.130723 0.363017 40.109931 -15.297194 -0.360499 5.639815 28.097916 11.338841 1.088581 40.896297 22.734022 -0.000002 -0.000001 -0.000000 6.882262 2.840055 -61.140418 8.247996 7.640053 -89.897884 2.146096 8.173450 -41.827730 -0.000001 0.000001 -0.000002 -2.345515 4.688872 -62.655224 8.754165 9.897086 -87.051321 1.995388 4.929286 -37.483429 0.000002 0.000001 0.000000 -9.042456 10.045660 -60.766185 8.524080 9.508824 -66.893029 6.576556 9.896755 -70.385113 0.000002 -0.000002 -0.000001 -17.946908 14.754967 -51.485853 8.868441 8.667067 -84.811982 4.540460 8.852539 -59.152976 -0.000004 -0.000001 -0.000002 0.632603 7.257356 8.700387 0.000000 0.000000 0.000000 7.936006 -9.680152 53.429903 -22.867451 36.194709 17.955457 -27.369927 10.432876 -17.813548 -2.346180 -6.100563 10.731435 2.364076 -23.806303 -8.771058 -5.012446 13.984828 5.861509 0.000000 0.000001 -0.000004 -0.054756 0.532098 0.738732 0.019780 -0.087317 5.078504 -0.003990 -2.004389 -2.834036 -0.000002 -0.000001 -0.000001 0.348248 -5.918529 2.583828 1.432608 -4.204225 24.052095 0.133895 1.746458 -5.752988 0.000000 0.000000 0.000004 1.205809 -11.756071 4.154779 1.794845 -3.771875 26.865402 1.319780 -3.995368 19.486910 0.000001 0.000000 -0.000000 2.126196 -19.166875 11.319985 3.354765 -2.122231 18.828533 6.367038 -5.015701 28.949173 0.000000 0.000000 0.000001 -36.773394 10.617890 26.395145 33.315651 -8.026587 0.411750 -2.590174 -1.478197 -18.486377 -1.836412 -0.000612 -0.000027 -0.000000 0.000001 0.000000 -28.946810 -19.272086 -35.992802 32.930770 6.440863 -2.518599 -10.676321 -1.252884 25.195236 -0.001699 -0.000451 -0.000006 -0.000000 -0.000000 -0.000000 
2.055979 82.772011 -0.004470 9.384034 -61.982061 9.665746 15.061013 -0.205252 -4.096074 5.808926 0.512827 -2.771126 0.000000 0.000000 0.000000 5.805185 0.597271 -2.833461 -3.638482 1.536333 3.725362 -19.889629 54.758118 2.275297 0.000000 0.000000 -0.000000 1.811786 -3.211876 -12.344136 0.000000 0.000000 0.000000 -39.504120 26.319844 -34.529308 1.101679 -46.417918 0.952206 -9.885011 0.827927 1.334661 40.109924 -15.297199 -0.360492 5.639815 28.097925 11.338851 1.088579 40.896304 22.734017 -0.000001 0.000003 -0.000001 6.883831 2.854624 -61.141955 8.247997 7.640056 -89.897891 2.146099 8.173448 -41.827730 0.000003 0.000002 -0.000000 -2.345677 4.688761 -62.645279 8.754098 9.897078 -87.051328 1.995390 4.929287 -37.483429 -0.000005 -0.000002 -0.000003 -9.042454 10.045662 -60.766185 8.524028 9.508680 -66.885816 6.576552 9.896756 -70.385113 -0.000001 0.000002 0.000001 -17.946906 14.754967 -51.485850 8.868254 8.667096 -84.803847 4.540110 8.852539 -59.138886 0.000002 -0.000000 0.000001 0.692447 7.427207 8.935640 0.000000 0.000000 0.000000 5.481148 -8.784154 52.938771 -21.606680 32.865620 15.936061 -24.516482 8.994988 -17.062803 -4.116509 -6.706663 9.307949 1.886964 -23.619578 -9.140344 -5.263922 12.857961 5.626030 0.000000 -0.000001 -0.000000 -0.010638 0.533223 -1.327966 0.017474 -0.087290 5.720683 -0.003033 -2.008595 -2.593929 -0.000000 0.000000 0.000001 0.409161 -5.946838 2.284655 1.424246 -4.181324 21.464418 0.132027 1.746965 -5.369372 -0.000000 -0.000001 -0.000000 0.746798 -11.971105 3.731576 1.819257 -3.840932 25.204776 1.315729 -3.996131 18.646239 -0.000000 0.000000 -0.000000 1.682338 -18.956630 9.983750 3.331149 -2.133642 16.242130 6.303629 -4.976065 25.911277 -0.000001 0.000000 -0.000000 -36.044134 11.155214 26.040443 33.645061 -7.852368 0.422402 -3.593345 -1.488890 -17.831343 -1.836412 -0.000610 -0.000027 -0.000000 0.000001 0.000000 -27.349875 -17.827692 -35.622404 32.421644 4.704201 -2.159364 -9.001120 -1.990903 25.449934 -1.203079 -0.026727 0.534006 -0.000000 -0.000000 0.000000 
1.928561 83.190796 1.177648 9.178552 -62.247066 9.295934 15.050078 -0.271271 -3.994138 5.633808 0.369645 -2.696472 0.000000 0.000000 0.000000 5.629855 0.454785 -2.759864 -3.655649 1.814231 3.662543 -19.581881 54.532350 1.920076 -0.000000 0.000000 -0.000000 1.851095 -3.205589 -12.196506 0.000000 0.000000 0.000000 -39.716628 26.246991 -34.186507 2.759060 -45.717434 2.309604 -9.601686 1.846976 2.522827 40.109920 -15.297196 -0.360500 5.639814 28.097916 11.338845 1.088581 40.896301 22.734017 0.000000 -0.000001 -0.000001 6.885309 2.867584 -61.143266 8.247999 7.640054 -89.897884 2.146103 8.173445 -41.827723 0.000003 0.000000 -0.000003 -2.345723 4.688753 -62.636373 8.754103 9.897085 -87.051246 1.995390 4.929287 -37.483433 -0.000003 0.000000 0.000001 -9.042455 10.045665 -60.766185 8.523942 9.508533 -66.879327 6.576558 9.896764 -70.385120 -0.000000 0.000000 -0.000001 -17.946909 14.754971 -51.485850 8.868061 8.667139 -84.796676 4.539717 8.852563 -59.126318 -0.000000 -0.000002 -0.000001 0.772922 7.546834 9.119206 0.000000 0.000000 0.000000 2.943619 -7.711104 52.563469 -20.404019 29.266107 13.879038 -21.562917 7.631770 -16.206056 -6.237926 -7.289052 7.642139 1.335662 -23.383233 -9.554164 -5.534997 11.541970 5.314246 0.000000 0.000000 0.000001 0.036201 0.531746 -3.691428 0.018942 -0.086956 6.453117 -0.001993 -2.013314 -2.311778 -0.000000 -0.000001 -0.000001 0.478645 -5.980252 1.942304 1.420330 -4.160112 18.500771 0.129812 1.747678 -4.924493 0.000000 0.000000 -0.000000 0.223183 -12.207957 3.248203 1.839687 -3.913908 23.324292 1.311358 -3.997714 17.693936 -0.000000 0.000000 -0.000000 1.189570 -18.704712 8.461771 3.307106 -2.146758 13.290753 6.255360 -4.937839 22.440306 0.000001 -0.000000 -0.000000 -35.250388 11.690927 25.656028 33.887403 -7.642636 0.435702 -4.566267 -1.512669 -17.199026 -1.836412 -0.000615 -0.000027 0.000000 -0.000001 0.000000 -25.815658 -16.382456 -35.317583 31.988846 2.944200 -1.800986 -7.268107 -2.748830 25.658668 -2.463987 -0.054717 1.093924 -0.000000 0.000000 0.000000 
1.795699 83.592941 2.348534 8.978025 -62.505260 8.937742 15.029898 -0.378590 -3.876277 5.371684 0.150690 -2.585287 0.000000 0.000000 0.000000 5.367415 0.236862 -2.650283 -3.683363 2.240244 3.564175 -19.144242 54.178307 1.405932 0.000000 -0.000000 -0.000000 1.843149 -3.270751 -12.215997 0.000000 0.000000 0.000000 -40.079031 26.019756 -33.554202 4.817942 -44.880480 3.995135 -9.298816 2.592866 3.380240 40.109931 -15.297196 -0.360492 5.639817 28.097916 11.338842 1.088580 40.896301 22.734022 -0.000001 0.000001 -0.000001 6.886550 2.878917 -61.144332 8.247998 7.640057 -89.897884 2.146102 8.173446 -41.827730 0.000000 -0.000001 -0.000002 -2.345682 4.688664 -62.628477 8.754140 9.897102 -87.051116 1.995393 4.929287 -37.483433 0.000005 0.000001 0.000001 -9.042456 10.045663 -60.766185 8.523900 9.508405 -66.873590 6.576557 9.896756 -70.385113 0.000001 0.000005 0.000004 -17.946908 14.754971 -51.485857 8.867863 8.667214 -84.790324 4.539341 8.852555 -59.115280 -0.000002 0.000002 0.000001 0.851985 7.665272 9.321646 0.000000 0.000000 0.000000 0.526180 -6.652019 52.259082 -19.353573 25.785900 11.962567 -18.611752 6.402502 -15.306780 -8.268309 -7.739951 6.081478 0.815496 -23.164132 -9.940996 -5.806302 10.322216 4.998306 -0.000000 0.000000 -0.000001 0.081634 0.527695 -5.928371 0.019949 -0.086717 7.147201 -0.000074 -2.014058 -2.047193 0.000002 -0.000002 -0.000001 0.550286 -6.015950 1.586684 1.421995 -4.150008 15.428258 0.127454 1.747960 -4.454194 -0.000000 -0.000000 0.000001 -0.337140 -12.451460 2.730638 1.855731 -3.992490 21.326391 1.307180 -4.000630 16.684211 -0.000001 -0.000000 -0.000000 0.689156 -18.427444 6.871377 3.285333 -2.163365 10.191937 6.234389 -4.912263 18.803516 -0.000000 -0.000001 -0.000000 -34.432746 12.203741 25.252968 34.093524 -7.408536 0.450299 -5.522237 -1.543483 -16.596724 -1.836412 -0.000614 -0.000028 -0.000000 0.000001 -0.000000 -24.356347 -14.819465 -35.018390 31.730498 1.157275 -1.444356 -5.519333 -3.493614 25.778278 -3.681804 -0.086206 1.520990 -0.000000 -0.000000 -0.000000 
